# xmcd CD database file
#
# Track frame offsets:
#	150
#	16972
#	39121
#	52840
#	72356
#	84116
#	96520
#	104336
#	129863
#	137077
#	149648
#	166031
#	173108
#	184135
#	199421
#	228361
#	247095
#	259174
#	271823
#	293665
#
# Disc length: 4378 seconds
#
# Revision: 0
# Processed by: cddbd v1.5.2PL0 Copyright (c) Steve Scherf et al.
# Submitted via: CDex 1.70beta2
#
DISCID=16111814
DTITLE=D.F. Duck - Duck Sampler
DYEAR=2007
DGENRE=Blues
TTITLE0=Hopkins Shakedown Blues
TTITLE1=Thirty Three In The Shade
TTITLE2=Enjoy The Light
TTITLE3=Native Girl
TTITLE4=Hopsack
TTITLE5=Monotwang No.1
TTITLE6=Nose Picker
TTITLE7=Eastbound Highway 45
TTITLE8=Motherfucker Boogie (test)
TTITLE9=Motherfucker Boogie
TTITLE10=Blow Out The Candles
TTITLE11=The Little Git Along
TTITLE12=Wish I Was Drunk When I Did This
TTITLE13=Twenty Seven (duckulele)
TTITLE14=That Was Somthin'
TTITLE15=Any More Mistakes Blues
TTITLE16=Actual Size
TTITLE17=Monotwang No.3
TTITLE18=Thirty Three In The Shade
TTITLE19=5AM Ethel Wants Coffee
EXTD=YEAR: 2007
EXTT0=
EXTT1=
EXTT2=
EXTT3=
EXTT4=
EXTT5=
EXTT6=
EXTT7=
EXTT8=
EXTT9=
EXTT10=
EXTT11=
EXTT12=
EXTT13=
EXTT14=
EXTT15=
EXTT16=
EXTT17=
EXTT18=
EXTT19=
PLAYORDER=
